
                                            <svg id="Layer_2" data-name="Layer 2" xmlns="http://www.w3.org/2000/svg" viewBox="0 0 627.46 860.19" width="100%" height="100%"><defs><clipPath id="clippath"><path style="fill:none" d="M0 0h404.89v860.19H0z"></path></clipPath><style>.cls-6,.cls-7{fill:#fff}.cls-9{letter-spacing:-.03em}.cls-7{font-family:WorkSans-Regular,'Work Sans';font-size:15.64px}.cls-11{fill:#63bfc6;stroke:#63bfc6;stroke-miterlimit:10;stroke-width:.18px}</style></defs><g id="Layer_1-2" data-name="Layer 1"><g style="clip-path:url(#clippath)"><path class="cls-6" d="M213.69 184.3c2.56 1.08 2.7 1.16 2.86 1.33 1.43 1.46 1.56 5.13-3.17 14.3.55.06 1.16.08 1.88-.03.73-.11 2.56-.49 7.44-5.28 5.72-5.61 5.18-7.03 8.2-8.39 3.6-1.62 5.71-.22 7.53-2.36 1.43-1.67 1.49-4.1 1.41-5.4-1.99.07-3.29.59-4.17 1.22-.53.38-1.51 1.23-2.8 1.13-1.45-.11-2.09-1.31-3.8-2.93-2.64-2.51-3.37-1.78-5.8-4.07-1.42-1.34-1.09-1.51-3.8-5.13-.51-.68-.96-1.26-1.37-1.78-.9.85-1.72 1.47-2.36 1.91-4.17 2.9-6.5 2.27-8.9 5.1-1.51 1.78-1.49 3.11-2.8 3.4-.2.04-.39.05-.59.05.49 1.34 1.14 2.21 1.69 2.79 1.2 1.25 2.36 1.55 8.53 4.14ZM184.07 175.03c2.04-.18 3.18 3.63 6.8 4 .31.03 1.99.18 2.4-.6.57-1.07-1.89-2.69-1.6-3.9.22-.91 2.01-1.63 7.25-1.68-.31-1.42-.09-2.87-.36-4.92-.18-1.35-.6-3.13-1.64-5.2-.19.49-.37.87-.86 1-1.88.5-3.35-4.06-8.4-9.4-4.26-4.51-7.21-5.5-7.3-8.6-.06-2.29 1.51-3.19.8-5-.89-2.28-4.5-3.68-6.4-2.7-.59.3-.6.62-1.4 1.2-.51.37-1.04.62-1.56.8 0 .15.02.31.03.46.25 3.92.01 4.72-.53 5.2-1.14 1-3.62.56-8.66-2.2-3.81-2.09-9.04-5.49-14.76-11.07.22 2.03-1.11 3.4-1.3 4.81-.65 4.83 12.36 8.63 11.79 13.2-.13 1.04-.95 1.76-2.6 3.2-1.11.97-3.72 3.25-6.6 2.8-2.08-.33-2.98-1.87-3.8-1.4-.79.46-.13 2-.6 4.2-.09.41-.22.84-.38 1.27a22.65 22.65 0 0 0 5.11 2.99c1.97.83 4.61 1.93 7.93 1.6 2.17-.22 2.27-.82 3.73-.8 3.43.04 5.57 3.39 8.06 6 2.89 3.03 3.3 1.99 12.21 7.5.98-2.12 1.91-2.7 2.64-2.77Z"></path><path class="cls-6" d="M156.59 201.53c1.86.94 3.59 1 4.45 2.55 1.01 1.83-.68 3.04-.35 5.45.67 4.86 8.41 6.51 7.95 9.85-.18 1.31-1.46 1.72-1.35 3.4.08 1.27.91 2.64 1.8 2.7.83.06.98-1.07 1.85-1.25 2.11-.45 4.01 5.56 6.85 5.45 1.32-.05 1.36-1.38 2.6-1.55 3.2-.43 4.8 8.15 10.73 10.7 1.97.84 3.97.84 5.61.59.23-.4.39-.87.47-1.45.17-1.29-.31-1.53-.47-3.49-.19-2.34.33-3.89.85-5.94 2.02-7.97.59-10.2 3.01-12.34 1.52-1.35 2.34-.69 3.58-2.17 1.6-1.91.69-3.55 1.69-7.63.63-2.55 1.33-5.4 3.48-6.5.39-.2.76-.3 1.11-.34-.13-.57-.19-1.18-.09-1.83.25-1.7 1.29-2.13 1.3-3 0-2.34-7.56-3.14-14.69-6.3-5.84-2.59-4-3.49-15.29-10.5-9.12-5.67-9.52-4.58-12.43-7.63-2.49-2.61-4.63-5.95-8.06-6-1.46-.02-1.56.58-3.73.8-3.31.34-5.95-.77-7.93-1.6a22.65 22.65 0 0 1-5.11-2.99c-.62 1.66-1.75 3.35-3.22 3.92-2.23.87-5.59-.66-8.03-4.05-.43 1.87-2.3 4.35-4.76 5.7-3.88 2.14-7.44.5-8.34 2.33-.61 1.24.3 3.47 1.84 4.38 3.14 1.86 7.74-2.47 9.89-.56.8.7.24 1.37 1.34 2.83 1.53 2.03 3.27 1.62 3.82 2.97.81 2-2.51 4.23-1.69 5.72.43.79 1.73.84 4.31.92 4.18.12 4.53-.69 6.07-.14 1.91.67 2.87 2.54 4.8 6.29 1.08 2.09 2.11 4.14 1.34 5.02-.06.08-.14.14-.22.18 1.56 3.15 3.41 4.69 5.02 5.5Z"></path><path class="cls-6" d="M178.31 279.36c2.03-.07 2.6-.4 4.53-.27 3.25.23 3.82 1.35 5.86 1.33 2.81-.02 3.94-2.13 6.93-4 .5-.31 1.06-.62 1.7-.92-.34-1.63-.17-2.51-1.27-4.84-2.05-4.32-4.01-4.23-6.5-8.86-1.34-2.51-3.28-6.12-1.88-8.48 1.46-2.46 5.25-1.41 6.4-3.96.89-1.96-1.14-3.04-.38-5.75.59-2.12 2.18-2.71 3.01-4.2-1.64.25-3.65.26-5.61-.59-5.92-2.55-7.53-11.13-10.73-10.7-1.24.17-1.27 1.49-2.6 1.55-2.84.11-4.73-5.9-6.85-5.45-.87.19-1.02 1.31-1.85 1.25-.89-.06-1.71-1.44-1.8-2.7-.11-1.69 1.17-2.09 1.35-3.4.46-3.34-7.28-4.99-7.95-9.85-.33-2.41 1.36-3.62.35-5.45-.86-1.55-2.59-1.61-4.45-2.55-1.6-.81-3.46-2.36-5.02-5.51-.53.31-1.34.01-2.47.1-3.56.28-7.25 4.13-6.99 7.07.2 2.33 2.77 2.76 2.54 4.31-.38 2.59-7.58 1.7-10.1 6.08-1.46 2.52-.11 4.63-1.63 5.65-1.36.92-3.04-.4-8.48-2.54-5.36-2.12-8.35-3.26-12.15-2.97-1.94.15-2.12.52-4.31.56-4.14.09-6.13-1.2-7.35-.07-.97.9-.72 2.64-.56 3.67.59 4.05 4.07 6.56 3.53 7.21-.33.4-1.6-.63-2.4-.07-.98.68.26 2.64-.7 4.24-.83 1.38-2.28.82-4.73 2.26-.81.48-3.76 2.21-3.74 4.45.02 2.19 2.86 3.95 4.87 4.59 2.57.82 3.46-.25 6.01.35 2.59.62 2.52 1.95 6.36 4.66 5.02 3.55 6.92 2.53 9.11 5.58 1.3 1.81 1.34 3.15 2.97 3.96 1.82.9 2.95-.19 4.87.42 2.27.73 2.27 2.75 4.66 5.72.81 1.01 4.4 5.46 9.4 6.15 2.99.41 4.2-.84 6.99.28 2.05.82 1.74 1.64 3.96 2.83 3.57 1.92 5.44.36 8.76 2.33.53.31 2.87 1.71 3.15 3.34 3.01.82 5.69 1.51 7.98 2.07 3.26.8 4.93 1.14 7.2 1.07Z"></path><path class="cls-6" d="M197.77 311.49c2.94-1.01 7.59-2.6 10.92-.4 2.57 1.69 1.6 3.81 4.4 6.13 4.63 3.84 11.8 1.83 12.13 1.73 2.75-.82 2.99-1.81 5.6-2.8 1.13-.43 2.29-.69 3.46-.82-.58-.41-1.22-.93-1.76-1.79-1.88-2.95-.13-5.86-1.69-6.88-1.56-1.01-3.84 1.52-5.56.47-1.33-.81-.53-2.67-1.41-4.81-1.58-3.83-6.27-2.91-12.15-7.07-1.97-1.4-3.67-3.44-7.06-7.54-3.32-4.01-5.04-6.11-6.4-9.42-.5-1.21-.74-2.08-.89-2.79-.63.3-1.2.61-1.7.92-2.99 1.87-4.13 3.98-6.93 4-2.05.01-2.61-1.1-5.86-1.33-1.93-.14-2.5.2-4.53.27-2.27.07-3.94-.27-7.19-1.07-2.28-.56-4.97-1.24-7.98-2.07.03.16.04.31.03.48-.16 1.75-2.79 1.68-4.31 4.24-1.27 2.14-1.4 5.53.14 7.42 1.35 1.65 3.57 1.64 3.82 3.25.14.92-.47 1.63 0 2.26.39.52.96.22 1.69.64 1.44.8.81 2.76 2.05 3.53 1.15.71 2.27-.62 3.39.07 1.13.7.36 2.3 1.69 3.89.06.07 1.42 1.64 3.04 1.49 2.01-.2 2.34-2.87 3.82-2.9 1.04-.02 1.66 1.29 4.24 5.86 3.03 5.38 3.16 5.33 3.32 6.22.56 3.22-.78 5.86-.41 7.22 2.53-2.95 6.49-6.49 12.12-8.42Z"></path><path class="cls-6" d="M249.07 374.02c2.52.5 6.43-1.61 12.72-11.84-5.08-3.54-11.13-9.21-13.08-11.13-3.67-3.6-6.62-8.34-12.52-17.81-2.78-4.45-5.43-9.1-3.67-12.06 1.11-1.87 3.55-2.36 3.48-3.96-.04-.88-.81-1.24-1.72-1.88-1.17.13-2.32.39-3.45.82-2.61.99-2.84 1.99-5.6 2.8-.32.1-7.5 2.11-12.13-1.73-2.8-2.32-1.83-4.44-4.4-6.13-3.34-2.2-7.99-.61-10.92.4-5.63 1.93-9.58 5.47-12.12 8.4.07.26.19.47.41.63.73.54 1.68-.07 2.54.7.76.68.74 1.78.78 2.4.11 1.98 1.04 3.44 2.89 6.36 1.88 2.97 3.27 2.37 7.7 6.29 1.05.93 3.31 2.95 5.58 6.01 3.2 4.31 3.78 7.13 6.43 7.7 1.74.37 2.51-.62 3.67.14 1.73 1.12.63 3.69 2.61 5.65.91.9 2.45 1.66 3.74 1.27 2.11-.62 2.52-4 3.11-3.89.67.14-.93 4.33 1.06 7.84 1.35 2.38 3.25 2.51 3.67 4.88.31 1.74-.56 2.55.14 3.89.84 1.62 2.95 2.04 3.32 2.12 2.69.55 3.86-1.19 4.94-.56.52.3.71.96.73 2.03.76-.31 1.69-.6 2.76-.74 3.49-.44 5.8 1.09 7.33 1.4Z"></path><path class="cls-6" d="M274.92 401.88c-.3-1.88-4.32-1.76-4.73-3.6-.34-1.54 1.94-3.96 4.13-4 2.1-.04 2.83 2.13 4.4 2.47 1.82.39 4.61-1.74 9.05-9.94-9-6.92-18.64-14.42-17.78-17.58.07-.25.4-1.21 0-2.17-.62-1.47-2.55-1.94-3.01-2.07-1.38-.38-3.22-1.44-5.19-2.82-6.29 10.23-10.2 12.35-12.72 11.84-1.53-.31-3.84-1.84-7.33-1.4-1.07.14-2 .42-2.76.74.03 2.14-.67 5.89-.87 11.54-.17 4.62.16 6.01 1.13 7.07 1.91 2.08 4.53.91 5.93 2.9 1.74 2.47-1.24 5.77.49 7.84 1.21 1.45 4.03 1.47 5.93.64 3.6-1.59 4.62-6.59 5.09-6.43.49.17-2.11 5.29-.07 7.78 1.4 1.71 4.38 1.44 4.8 3.25.19.85-.31 1.56.14 1.98.46.44 1.38.03 2.33-.21 1.18-.3 3.14-.52 4.56-.12 2-2.11 3.74-3.91 5.27-5.43.5-.49 1.35-1.33 1.21-2.27Z"></path><path class="cls-6" d="M294.11 426.31c1.25.41 1.69.86 2.75.8 2.29-.13 2.78-2.4 4.6-2.6 2.36-.26 3.2 3.42 5.55 3.7 3.12.37 4.92-5.75 8.9-9.25 2.07-1.83 5.37-3.49 10.93-3.61a9.67 9.67 0 0 1-.51-.14c-4.38-1.33-4.65-5.35-9.51-7.07-1.4-.49-2.32-.49-3.01-.09-1.18.68-1.01 2.14-1.69 2.36-1.33.43-3.91-4.54-5.65-7.26-2.05-3.19-5.26-5.78-11.58-10.84-2.16-1.72-4.6-3.59-7.09-5.51-4.44 8.2-7.23 10.33-9.05 9.94-1.56-.34-2.3-2.51-4.4-2.47-2.19.04-4.47 2.46-4.13 4 .41 1.84 4.43 1.72 4.73 3.6.15.93-.71 1.78-1.2 2.27-1.54 1.52-3.27 3.32-5.27 5.43.39.11.74.26 1.02.48 2.06 1.58-.28 5.71 1.91 7.42 1.11.87 2.16.15 3.96 1.41.64.45.73.7 2.05 2.33 3.29 4.07 4.19 4.31 4.59 4.38 1.1.2 1.16-.39 3.04-.42 1.58-.03 3.28.37 3.88.9 2.32-.44 4.03-.16 5.21.22Z"></path><path class="cls-6" d="M316.16 425.95c1.13-.32 1.32-2.09 2.13-2.07 1.45.05 1.06 5.69 4.2 7.2.97.47 2.87.83 4.4.07 1.01-.51 1.57-1.37 2.4-1.2.72.14.9.91 1.33 1.27.65.53 2.16.4 5.7-1.84-.98-.29-1.8-.61-2.19-1.52-.39-.93-.08-1.88.09-2.45.98-3.07 4.24-4.27 3.96-4.9-.18-.4-1.45.28-3.39-.09-2.08-.4-2.92-1.64-3.58-1.22-.87.54.14 2.96-.56 3.3-.48.23-1.65-.54-1.98-1.6-.54-1.76 1.74-3.26 1.04-4.43-.51-.85-1.48-.75-2.88-1.09-5.56.12-8.86 1.78-10.93 3.61-1.43 1.26-2.57 2.85-3.6 4.36 1.39 1.73 2.78 2.93 3.87 2.62Z"></path><path class="cls-6" d="M305.5 468.71c2.82.93 2.82 3.98 5.9 5 2.81.93 3.87-1.28 6.99-.5 3.35.84 6.31 4.42 6.2 7.5-.06 1.67-.99 2.03-.8 3.6.31 2.49 3.08 5.02 5 4.6 2.46-.54 2.53-5.69 4.9-5.9 1.29-.11 1.95 1.35 3.3 1 1.34-.36 1.92-2.13 2-2.4.73-2.34-.93-3.62-1.1-5.9-.35-4.63 5.69-10.06 9.39-9.3 1.54.31 1.64 1.48 3.4 1.7 2.04.25 2.6-1.24 6-2.5 3.31-1.23 5.08-.68 5.8-2 .45-.85.2-1.93-.26-2.93-1.16.43-2.15.98-2.74.43-.61-.57.06-1.53-.47-2.83-.6-1.48-2.13-1.86-3.67-2.64-3.05-1.54-4.76-3.93-7.82-8.2-.52-.73-1.49-2.14-2.54-4.05-4.22-7.68-3.12-11.38-6.4-13.19-.76-.42-1.54-.62-2.24-.83-3.53 2.25-5.05 2.38-5.7 1.84-.43-.36-.62-1.12-1.33-1.27-.83-.17-1.38.69-2.4 1.2-1.53.77-3.43.4-4.4-.07-3.14-1.52-2.75-7.15-4.2-7.2-.81-.03-1 1.75-2.13 2.07-1.1.31-2.48-.89-3.86-2.63-1.84 2.7-3.29 5.13-5.3 4.89-2.35-.28-3.19-3.96-5.55-3.7-1.81.19-2.3 2.47-4.6 2.6-1.06.06-1.5-.39-2.75-.8-1.18-.38-2.89-.66-5.22-.23.13.12.21.24.22.37.06.73-2.13 1.05-2.26 2.33-.08.76.65 1.01.64 1.63-.02 1.34-3.45 2.3-7.56 3.61-6.94 2.21-8.14 2.98-8.34 4.03-.25 1.37 1.27 2.89 1.77 3.39 1.66 1.66 3.09 1.36 3.67 2.68.6 1.37-.74 2.12-.35 3.75.42 1.76 2.16 1.64 4.87 4.17 2.56 2.39 2.06 3.47 3.96 4.31 2.15.96 3.8 0 4.87 1.27.81.96.07 1.73.85 2.83 1.14 1.6 3.17.61 5.08 2.19.48.4 1.01 1.54 2.05 3.82.65 1.42 1.14 2.49 1.46 3.33 2.7-1.52 4.5-1.47 5.68-1.08ZM214.62 139.9c1.02.59 1.15 1.13 2.2 1.53 2.24.87 4.65-.41 5.26-.73 1.69-.89 4.58-3.16 4.4-5.86-.06-.83-.47-2.71-5.4-5.47-2.9-1.62-7.72-3.74-14.65-4.38-.26 2.63-1.85 3.81-1.37 6.35.81 4.3 6.25 5.33 5.8 7.8v.03c1.8-.13 2.98.28 3.77.74Z"></path><path class="cls-6" d="M227.85 128.04c3.2-1.53 6.15-1.31 7.39-1.2 5.22.46 5.52 3.1 11.69 4 2.11.31 5.72.84 7.39-1 .31-.34.73-.96 1.5-1.1 1.32-.24 2.2 1.21 3 1.4 1.25.29 3.4-2.31 7.14-10.94-.28-.13-.54-.29-.78-.49-1.74-1.48-1.04-4.18-2.53-4.67-1.18-.39-1.94 1.18-3.06.93-2.47-.56-1.41-8.73-4.27-9.73-1.63-.57-2.58 1.87-5.6 1.87-2.86 0-3.31-2.21-6.26-2.54-3.26-.36-7.21 1.84-8 4.67-.67 2.4 1.38 3.65.53 5.46-1.24 2.65-7.27 3.52-9.6 1.2-1.07-1.07-.46-1.92-1.6-3.6-1.99-2.94-5.04-2.05-6.13-4-.58-1.04-.2-2.17.49-3.41-4.58-.78-6.26 0-6.89.94-1.3 1.94 1.32 5.27-.67 8.67-.55.94-1.2 1.45-2.07 2.13-1.57 1.24-3.29 1.93-4.85 2.31.91 1.35 1.65 2.99 1.76 4.89.02.42.01.8-.03 1.15 6.93.65 11.76 2.77 14.65 4.38 1.11.62 1.99 1.19 2.68 1.72.95-1.03 2.28-2.19 4.1-3.06Z"></path><path class="cls-6" d="M238.44 132.54c.95 2.64 2.67 4.2 3 4.5 2.2 1.95 3.65 1.52 5.4 3.2.84.81 1.81 2.17 2.26 4.56 1.52 1.24 1.53 3.32 2.78 3.49 1.09.14 1.46-1.39 3.18-1.55 1.23-.12 2.64.52 2.76 1.27.1.62-.73.92-2.12 2.62-.96 1.18-1.44 1.76-1.41 2.4.08 1.86 3.87 3.6 5.02 2.68.71-.57.06-1.88.99-2.68.54-.47 1.13-.34 2.12-.43.6-.05 3.5-.28 4.66-1.84 1.05-1.4.7-3.9-.64-5.44-1.23-1.41-3.46-2.2-4.66-1.49-.64.38-.66.99-1.63 1.49-.62.31-1.6.58-1.91.21-.36-.43.32-1.64.92-2.33.89-1.04 2.53-2.05 4.31-1.84 1.69.2 1.67 1.3 3.6 1.98 2 .7 4.75.49 6.29-.99 1.23-1.19.68-2.24 1.84-2.9 1.5-.85 2.85.69 4.95-.14.22-.09 1.75-.69 2.12-1.98.4-1.39-.94-2.24-.7-3.75.19-1.2 1.2-1.75 2.19-2.62 3.97-3.5 3.66-8.97 5.3-8.91.54.02.49.61 1.63 1.27 1.07.62 2.85 1.11 4.03.42 1.15-.67.72-1.87 1.77-3.61 1.09-1.81 2.25-1.65 4.52-3.46 1.26-1 .98-1.11 4.73-5.72 2.96-3.63 3.93-4.53 5.02-4.38.79.11 1.53.76 1.84 1.49.71 1.7-1.25 3.21-.56 4.45.5.9 2.17 1.24 3.18.7 1.53-.82 1.76-3.77.78-5.65-1.02-1.96-2.7-1.52-4.87-4.17-1.29-1.57-.96-2.04-2.05-2.9-1.49-1.17-3.85-1.65-5.86-.99-2.65.87-2.91 3.1-5.09 3.18-1.46.05-1.53-.94-3.39-1.13-2.52-.26-3.3 1.47-5.16.99-1.9-.5-1.88-2.51-3.46-2.68-2.09-.22-3.98 3.1-4.45 2.76-.05-.03-.06-.09-.06-.17-4.44 2.36-5.37 4.18-5.31 5.45.1 2.07 2.96 3.47 2.27 4.93-.39.82-1.3.72-2.8 1.87-1.74 1.32-1.43 2.41-2.8 3.33-1.97 1.34-4.98 2.06-6.95 1.16-3.74 8.63-5.89 11.23-7.14 10.94-.79-.18-1.68-1.64-3-1.4-.76.14-1.18.76-1.5 1.1-1.68 1.83-5.29 1.31-7.39 1-4.92-.72-6.11-2.54-9.04-3.49-.18 1.41-.15 3.23.54 5.17Z"></path><path class="cls-6" d="M236.74 141.84c-2.79 2.66-.17 6.09-2.9 10.7-1.5 2.53-2.96 2.62-3.1 4.5-.17 2.38 1.95 5.3 4.3 5.6 2.73.36 4.22-3.01 6.7-2.5.93.2 1.67.87 2.24 1.7.24-.32.47-.71.7-1.25 1.26-2.88.95-5.83 1.55-5.86.27-.02.31.56.92 1.2 1.14 1.22 3.32 1.72 3.96.99.53-.61-.03-2.06-.64-2.9-.38-.53-.58-.52-.92-.92-1.29-1.52.02-3.43-.85-4.52-1.17-1.48-4.73.5-5.51-.7-.54-.84.45-2.87 2.05-3.61 1.55-.7 3.12.08 3.25.14.23.12.42.26.6.4-.46-2.39-1.42-3.75-2.26-4.56-1.73-1.66-3.17-1.26-5.34-3.15-.15.57-.38 1.17-.76 1.75-1.2 1.86-2.58 1.64-4 2.99Z"></path><path class="cls-6" d="M215.42 151.63c.46 1.12 1.63 1.05 4.2 2.67 2.43 1.53 1.98 1.95 3.26 2.4 1.9.66 2.98-.22 6.99-.6.4-.04.78-.06 1.13-.08.51-1.02 1.66-1.5 2.83-3.48 2.73-4.61.11-8.04 2.9-10.7 1.42-1.35 2.8-1.13 4-3 .37-.58.61-1.18.76-1.75-.02-.02-.04-.03-.06-.05-.33-.29-2.05-1.86-3-4.5-.7-1.94-.72-3.76-.55-5.18-.74-.24-1.6-.42-2.65-.51-1.25-.11-4.2-.33-7.39 1.2-1.82.87-3.15 2.03-4.08 3.06 2.41 1.82 2.67 3.1 2.71 3.75.18 2.7-2.71 4.97-4.4 5.86-.51.27-2.22 1.17-4.05 1.01-.26 2.62-.92 4.58-1.55 5.99-.74 1.66-1.54 2.78-1.07 3.93Z"></path><path class="cls-6" d="M215.36 162.44c-.31 1.21.87 1.91 4.13 6.27 2.71 3.62 2.38 3.8 3.8 5.13 2.43 2.29 3.16 1.56 5.8 4.07 1.71 1.62 2.34 2.83 3.8 2.93 1.29.09 2.27-.75 2.8-1.13.88-.63 2.18-1.15 4.17-1.22-.03-.39-.07-.69-.09-.82-.34-2.26-1.21-2.25-1.51-4.24-.49-3.35 1.53-6.38 2.68-8.1 1.44-2.15 2.28-2.45 3.04-3.48-.57-.82-1.3-1.5-2.24-1.7-2.47-.51-3.96 2.85-6.7 2.5-2.35-.31-4.47-3.22-4.3-5.6.03-.41.13-.73.27-1.02-.36.02-.73.05-1.13.09-3.68.34-4.9 1.11-6.54.73-.7.64-1.53 1.32-2.53 2-3.27 2.22-5.1 2.19-5.46 3.6ZM174.78 138.04c1.89-.98 5.5.42 6.4 2.7.7 1.81-.87 2.7-.8 5 .09 3.1 3.03 4.09 7.3 8.6 5.04 5.34 6.51 9.89 8.4 9.4 1.09-.29.62-1.83 2.3-3.1 2.28-1.73 4.59.02 7.2-1.8.4-.28 1.85-1.3 2.1-2.9.3-1.94-1.5-2.7-3.1-6.2-.81-1.78-1.88-4.12-1-6.3.29-.71.73-1.27 1.2-1.7-1.68-.59-2.54-2.08-4.3-1.8-1.44.23-1.63 1.36-2.9 1.3-1.68-.08-3.36-2.15-3-3.4.23-.82 1.19-.76 1.9-1.6.47-.55.77-1.44.58-2.93-.05.02-.09.04-.14.06-2.02.68-3.46-3.03-7.06-3.13-2.03-.06-2.4 1.1-4.6.93-.9-.07-2.27-.37-4.8-2.33-1.37-1.06-3.26-2.75-5.14-5.29-.83 2.66-3.91 3.48-4.39 7.89-.25 2.25.49 2.64.9 8.6.52-.18 1.05-.44 1.56-.8.79-.57.81-.9 1.4-1.2Z"></path><path class="cls-6" d="M210.76 159.13c1.21 1.34 1.39 2.23 2.5 3.1.5.39 1.18.77 2.13 1.01a1.32 1.32 0 0 1-.03-.81c.36-1.41 2.19-1.38 5.46-3.6 1-.67 1.83-1.37 2.52-2-.15-.03-.3-.08-.46-.13-1.29-.45-.83-.87-3.26-2.4-2.57-1.61-3.74-1.55-4.2-2.67-.48-1.15.32-2.27 1.06-3.93.63-1.41 1.29-3.38 1.55-5.99-.4-.03-.81-.12-1.21-.28-1.05-.41-1.18-.94-2.2-1.53-.79-.46-1.98-.87-3.77-.74-.32 1.64-3.05 3.01-5.19 2.78-.33-.03-.62-.11-.89-.2-.48.44-.92 1-1.21 1.7-.88 2.18.19 4.53 1 6.3 1.6 3.5 3.4 4.26 3.1 6.2-.04.25-.11.49-.2.71 1.07.54 2.25 1.32 3.3 2.49Z"></path><path class="cls-6" d="M199.66 174.63c.96 1.5 2.81 3.05 4.4 2.7 1.31-.29 1.29-1.61 2.8-3.4 2.39-2.83 4.72-2.2 8.9-5.1.64-.44 1.46-1.07 2.36-1.91-1.61-2.04-2.48-2.95-2.73-3.68-.95-.23-1.63-.62-2.13-1.01-1.11-.87-1.29-1.76-2.5-3.1-1.06-1.17-2.24-1.95-3.3-2.49-.48 1.19-1.57 1.95-1.9 2.19-2.61 1.82-4.92.07-7.19 1.8-.93.7-1.2 1.49-1.44 2.1 1.04 2.07 1.46 3.86 1.64 5.2.38 2.91-.25 4.6 1.1 6.7Z"></path><path class="cls-6" d="M216.55 185.63c-.17-.17-.3-.26-2.86-1.33-6.17-2.59-7.33-2.89-8.53-4.13-.56-.58-1.2-1.45-1.69-2.79-1.44-.08-2.96-1.43-3.8-2.74-.39-.62-.62-1.2-.74-1.78-5.24.05-7.03.77-7.25 1.68-.29 1.21 2.16 2.83 1.6 3.9-.41.78-2.09.63-2.4.6-3.62-.37-4.75-4.18-6.8-4-.73.06-1.65.65-2.62 2.77.07.05.14.09.22.14 11.29 7.02 9.45 7.91 15.29 10.5 7.13 3.15 14.7 3.96 14.69 6.3 0 .87-1.05 1.3-1.3 3-.09.64-.04 1.26.09 1.83.93-.1 1.79.25 2.94.37 4.72-9.17 4.59-12.83 3.16-14.29ZM79.57 78.71c5.26 2.16 2.24 14.26 8.53 17.47 3 1.53 7.33.63 8.4-1.33.92-1.69-1.18-3.06-1.33-6.53-.22-5.13 4.18-6.68 3.6-10.26-.64-3.96-6.18-3.19-9.06-8.27-3.17-5.59.59-11.7-2.53-13.6-1.29-.79-2.1.16-6.4-.67-2.68-.51-4.23-.81-4.66-1.87-.93-2.24 3.98-5.83 3.06-7.2-.49-.73-2.02.1-3.33-.8-.59-.4-.95-1.02-1.17-1.72-.29.05-.59.04-.87-.03-2.75-.69-1.31-7.13-5.51-10.18-.3-.22-2.62-1.9-4.52-1.13-2.49 1.01-1.13 4.98-4.38 7.78-1.91 1.65-3.84 1.52-4.66 3.53-.46 1.13 0 1.52-.28 2.83-.51 2.33-2.81 4.96-5.93 5.37-2.99.4-5.68-1.38-6.92-3.25-1.31-1.97-.48-3.22-1.98-4.81-1.31-1.38-2.23-.73-4.8-2.26-2.71-1.62-2.3-2.71-4.38-3.53-2.66-1.05-3.83.55-5.79-.7-1.51-.96-1.24-2.18-3.25-3.39-.66-.39-1.99-1.2-2.97-.7-1.05.53-.47 1.94-1.69 3.25-1.24 1.32-2.59.7-3.25 1.84-.74 1.29.81 2.39.14 3.96-.67 1.58-2.64 1.42-2.97 2.97-.16.75.19 1.28.14 1.75 4.18 4.28 4.72 6.36 4.17 7.44-.32.62-.85.64-1.1 1.3-.7 1.91 2.78 4.43 7.1 8.5 6.33 5.97 7.94 9.12 10.2 8.5 1.27-.35 2.58-1.84 2.4-2.9-.15-.9-1.33-1.24-1.2-1.9.1-.49.87-.86 1.5-.8 1.12.1 1.87 1.54 2.1 2.6.34 1.58-.47 2.4-.6 3.6-.35 3.26 4.49 8.05 8.09 7.5 4.23-.65 4-8.26 8.29-9 3.57-.61 5.05 4.4 10.9 4.9 4.08.35 4.97-1.95 7.7-.9 1.5.58 2.8 1.89 3.78 3.51 2.63-1.39 4.33-1.32 5.46-.85Z"></path><path class="cls-6" d="M111.11 86.34c1.05-.77 1.43-1.84 2.9-2.2 3.69-.91 6.6 4.5 9.19 3.5 1.54-.6 2.27-3.21 2.1-5.1-.34-3.75-4.24-5.03-3.7-7.9.17-.91.8-2.06 1.8-2.4 2.38-.8 4.43 3.89 7.39 3.5 2.31-.31 3.74-3.52 4.2-5.2 1.32-4.85-2.09-9.19-2.5-9.7-3.01-3.72-5.76-2.61-7.39-5.7-1.65-3.13.56-5.44 0-10.3-.29-2.56-1.24-4.85-2.54-6.89-.4.13-.83.23-1.29.28-2.17.25-4.88-.5-5.65-2.12-.64-1.34.49-2.35-.14-3.39-1.1-1.83-6.14-1.41-9.75.56-1.32.72-3.62 1.98-4.66 4.52-1.06 2.59.25 3.88-.42 9.19-.47 3.72-1.29 4.41-1.84 4.66-1.15.54-2.9.03-3.25-.85-.32-.81.7-1.52.42-2.68-.2-.83-.92-1.31-1.27-1.55-2.73-1.91-4.77-4.68-7.35-6.79-5.74-4.69-6.3-5.11-7.35-4.95-1.88.29-3.8 2.23-3.96 4.1-.14 1.63 1.11 2.56.56 3.67-.31.64-1.12 1.17-1.96 1.3.22.7.58 1.32 1.17 1.72 1.31.9 2.84.07 3.33.8.91 1.36-3.99 4.96-3.06 7.2.44 1.06 1.98 1.35 4.66 1.87 4.3.82 5.11-.12 6.4.67 3.12 1.9-.65 8.01 2.53 13.6 2.89 5.07 8.42 4.31 9.06 8.27.32 2-.9 3.36-2 5.07 8.6 4.87 12.47 4.63 14.36 3.24Z"></path><path class="cls-6" d="M138.6 65.64c2.73 1.85 2.53 5.25 4.8 5.8 2.13.52 4.4-1.98 4.6-2.2 2.8-3.15 1.53-7.37 3.4-8 1.21-.41 2 1.3 3.4 1 1.88-.39 2.08-3.83 3.8-8.4 1.14-3.03 3.52-9.36 6.8-9.6 2.52-.19 3.83 3.36 6.6 2.8 1.71-.34 1.78-1.81 3.4-2 2.61-.31 3.96 3.34 6 3 1.63-.27 3.23-3.02 3-5.4-.55-5.66-11.12-6.2-12.19-10.8-.61-2.61 1.77-6.83 13.75-14-.45-.49-.83-1.05-1.08-1.66-.71-1.74.19-2.42-.56-3.96-.77-1.58-1.92-1.29-3.39-3.25-1.18-1.58-.56-1.95-1.55-3.11-1.85-2.16-4.57-1.57-5.08-3.25-.29-.94.44-1.54 0-2.12-.59-.78-2.55-.58-3.96.14-2.61 1.34-1.74 3.63-3.96 5.51-3.16 2.68-6.86-.34-10.31 2.68-1.02.9-1.51 1.88-2.97 2.26-1.71.45-2.56-.51-3.82.14-.96.49-.87 1.26-2.12 3.25-1.43 2.27-2.04 2.07-2.54 3.25-1.12 2.63 1.63 4.22 1.27 7.35-.39 3.47-4.35 6.53-7.91 7.07-2.97.45-3.32-1.2-6.07-.85-4.55.59-5.41 5.34-9.3 6.64 1.3 2.04 2.25 4.33 2.54 6.89.56 4.86-1.65 7.17 0 10.3 1.63 3.09 4.39 1.98 7.39 5.7.22.28 1.35 1.71 2.1 3.75 1.31-.01 2.75.22 3.99 1.07ZM141.2 164.43c1.86-.73 3.18-3.23 3.6-5.2.47-2.2-.19-3.74.6-4.2.82-.48 1.72 1.08 3.8 1.4 2.88.45 5.49-1.83 6.6-2.8 1.65-1.44 2.47-2.16 2.6-3.2.56-4.56-12.44-8.37-11.79-13.2.21-1.54 1.79-3.04 1.2-5.4-.15-.62-.38-.99-.6-2-.39-1.78-.23-3.14-.2-3.6.19-3.51-4.39-9.52-8.99-9.8-1.71-.1-2.41.64-4.6.2-2.01-.41-2.42-1.24-4-1.8-3.83-1.37-5.87 1.89-8.79.8-2.98-1.12-4.87-6.03-4.2-9.8.59-3.32 3.06-5.15 2.2-6.6-.5-.84-1.78-.98-3.4-1-6.7-.07-9.37 2.1-12.59 1.8-1.78-.17-4.1-1.12-6.71-4.49-1.6 1.45-5.21 1.95-7.82.62-6.29-3.21-3.27-15.31-8.53-17.47-1.14-.47-2.84-.54-5.45.85 1.69 2.8 2.44 6.55 1.62 9.19-.2.64-.63 1.65-.7 3.2-.1 2.19.59 3.62.9 4.7.98 3.47-1.09 7.03-2.4 9.3-3.42 5.92-8.12 6.18-8 9.3.11 2.73 3.71 3.19 3.8 6.4.07 2.66-2.37 3.49-2.1 6.4.2 2.18 1.65 2.47 1.5 4.4-.18 2.34-2.52 4.58-4 4.3-.91-.17-1.11-1.21-2.2-1.3-.95-.08-1.73.65-2 .9-1.62 1.51-1.61 3.92-1.7 4.7-.17 1.48-1.44 3.33-5.62 5.39.08.03.16.06.24.1 2.51.92 4.34-.75 6.92.92 1.18.76 1.22 1.38 2.61 1.98.52.22 2.44.96 4.59.35 1.27-.36 1.44-.85 2.12-.7 1.29.27 1.08 2.15 2.54 3.25 1.78 1.34 3.49-.41 5.37.78 1.95 1.23 1.01 3.66 3.04 4.88 1.51.9 3.83.65 4.59-.42.61-.86-.1-1.82.64-3.04.51-.85 1.3-1.13 1.84-1.41 2.88-1.55 1.77-5.13 4.17-7.21 2.59-2.25 5.6.45 9.54-2.19 1.86-1.24 1.45-2.02 3.04-2.76 3.14-1.46 7.91.06 10.53 2.97 2.02 2.25 1.35 3.76 3.74 5.65 1.85 1.47 2.58.82 4.66 2.4 2.58 1.96 2.04 3.4 4.31 4.88 2.64 1.72 4.67.61 5.37 1.91.23.43.25 1 .1 1.64 2.42 3.39 5.78 4.93 8.01 4.05Z"></path><path class="cls-6" d="M149.89 117.14c.2-1.45-.9-1.98-1.4-4.5-.48-2.39-.38-6.4 1.9-8.9 2.88-3.16 7.77-2.28 8.4-4.9.12-.52-.08-.5-.1-1.8-.04-2.62.78-4.4 1-5.2.92-3.32-3.6-7.11-7.1-11.4-1.8-2.21-4.05-5.43-6.05-9.91-.87.62-2.03 1.18-3.15.91-2.26-.55-2.07-3.95-4.8-5.8-1.25-.85-2.68-1.08-3.99-1.06.62 1.68.99 3.76.39 5.95-.46 1.69-1.88 4.89-4.2 5.2-2.97.39-5.02-4.3-7.39-3.5-1 .34-1.63 1.49-1.8 2.4-.53 2.87 3.36 4.15 3.7 7.9.17 1.89-.55 4.5-2.1 5.1-2.59 1-5.5-4.41-9.19-3.5-1.47.36-1.85 1.43-2.9 2.2-1.9 1.39-5.76 1.63-14.36-3.23-.88 1.35-1.69 2.93-1.6 5.2.15 3.47 2.25 4.84 1.33 6.53-.14.26-.34.49-.58.71 2.6 3.37 4.93 4.32 6.71 4.49 3.22.3 5.89-1.87 12.59-1.8 1.61.02 2.9.16 3.4 1 .87 1.45-1.61 3.27-2.2 6.6-.67 3.77 1.21 8.68 4.2 9.8 2.92 1.1 4.97-2.17 8.79-.8 1.58.56 1.99 1.39 4 1.8 2.19.44 2.89-.3 4.6-.2 2.74.17 5.48 2.36 7.2 4.86 3.46-1.44 4.53-2.92 4.7-4.15ZM186.47 45.74c2.66-.82 2.59-4.31 5.7-5.5 1.97-.76 4.54-.34 5.19.9.67 1.27-1.15 2.46-1.4 5-.31 3.15 1.9 7.24 4.6 7.8 3.36.69 5.15-4.58 10.7-4.6.95 0 2.98 0 4 1.3 1.2 1.55-.19 3.49 1.2 5.5.06.09 1.21 1.71 2.9 1.8 2.19.11 2.81-2.49 4.8-2.7 2.76-.29 3.91 4.47 6.99 5.3 1.82.49 4.51-.34 8.63-4.93.28-.63.52-1.4.6-2.38.19-2.51-.88-3.79.14-5.51.16-.27.74-1.25 1.55-1.27.91-.03 1.2 1.17 2.54 1.69.72.28 1.81.39 2.54 0 1.64-.88.45-3.72 1.55-7.92 1.1-4.16 3.27-5.19 2.54-6.93-.54-1.29-1.94-1.21-5.93-2.68-5.94-2.2-5.66-3.41-8.34-3.53-1.18-.05-1.09.2-8.76 2.4-3.47 1-4.39 1.21-5.37.7-2.14-1.1-1.18-3.87-3.25-5.65-.87-.74-2.1-1.17-9.75-.28-7.34.85-8.68 1.54-10.45.42-2.71-1.69-1.9-4.7-4.52-5.65-2.48-.9-4.1 1.46-6.92.28-.73-.31-1.44-.82-2.03-1.45-11.98 7.17-14.36 11.38-13.75 14 1.08 4.6 11.65 5.14 12.19 10.8.1.99-.13 2.06-.54 2.97 1.13.38 1.99.33 2.64.13Z"></path><path class="cls-6" d="M167.92 105.91c2.14 2.03 5.07 4.83 9.06 5.07 3.33.2 7.3-1.4 7.73-3.6.39-2-2.43-2.96-2.4-6 .03-2.1 1.37-2.24 1.87-4.93.55-2.97-.94-3.62-.67-6.67.34-3.8 2.78-4.24 2.4-6.67-.52-3.27-5.11-3.34-5.6-6.67-.35-2.39 1.86-3.39 1.46-6.67-.25-2.02-1.15-2.14-1.33-3.6-.54-4.25 6.79-6.34 8.13-11.2.53-1.93.26-4.81-3.05-9.08-.48.01-1.04-.06-1.68-.28-.57 1.27-1.51 2.27-2.46 2.43-2.04.34-3.39-3.31-6-3-1.61.19-1.69 1.66-3.4 2-2.76.56-4.08-2.99-6.6-2.8-3.27.24-5.65 6.57-6.79 9.6-1.72 4.57-1.91 8-3.8 8.4-1.4.29-2.19-1.41-3.4-1-1.87.63-.6 4.85-3.4 8-.09.1-.66.72-1.45 1.29 2 4.48 4.24 7.7 6.05 9.91 3.5 4.28 8.02 8.08 7.1 11.4-.22.8-1.04 2.57-1 5.2 0 .5.04.81.08 1.02.79.24 1.63.57 2.49 1.04 3.14 1.74 3.41 3.69 6.67 6.8Z"></path><path class="cls-6" d="M192.67 79.74c.32.07 2.77.66 3.7 2.7 1.21 2.65-1.52 4.81-.5 7.8.52 1.53 2.08 3.46 3.9 3.6 4.35.34 6.93-9.89 11.8-9.5 1.43.11 2.12 1.08 3.2.6 1.63-.72 1.06-3.34 2.1-6.4 1.88-5.53 6.54-5.23 7.1-9.4.34-2.56-1.34-3.28-2.7-8.3-.3-1.11-.51-2.17-.66-3.16-.36.18-.76.29-1.23.26-1.68-.09-2.84-1.71-2.9-1.8-1.39-2.01 0-3.95-1.2-5.5-1.01-1.31-3.05-1.3-4-1.3-5.54.02-7.33 5.29-10.7 4.6-2.7-.56-4.91-4.65-4.6-7.8.25-2.54 2.08-3.73 1.4-5-.66-1.24-3.23-1.66-5.19-.9-3.1 1.19-3.03 4.68-5.7 5.5-.28.08-.59.14-.95.15 3.31 4.28 3.59 7.15 3.05 9.08-1.35 4.86-8.67 6.94-8.13 11.2.18 1.46 1.09 1.58 1.33 3.6.4 3.27-1.81 4.28-1.46 6.67.45 3.11 4.48 3.37 5.44 6.05 1.99-2.23 4.63-3.27 6.92-2.76Z"></path><path class="cls-6" d="M222.15 96.84c1.05 4.78-5.12 8.49-3.46 11.46 1.09 1.95 4.14 1.06 6.13 4 1.13 1.67.53 2.53 1.6 3.6 2.32 2.31 8.35 1.46 9.6-1.2.85-1.82-1.2-3.07-.53-5.47.79-2.82 4.73-5.03 8-4.67 2.95.33 3.4 2.53 6.26 2.53 3.01 0 3.97-2.44 5.6-1.87 2.85 1 1.79 9.18 4.27 9.73 1.13.25 1.89-1.32 3.07-.93 1.49.49.79 3.19 2.53 4.67 1.87 1.58 5.48.87 7.73-.67 1.36-.93 1.06-2.01 2.8-3.33 1.5-1.15 2.41-1.04 2.8-1.87.69-1.46-2.17-2.87-2.27-4.93-.06-1.27.87-3.1 5.31-5.45 0-.23.18-.65.28-1.1.46-2.15-.78-5.06-2.54-5.8-1.86-.78-3.03 1.4-5.37.78-1.64-.44-1.49-1.63-3.6-3.32-3.28-2.63-6.81-2.27-6.92-3.65-.08-.93 1.5-1.24 1.69-2.73.19-1.49-1.17-2.79-1.41-3.01-1.83-1.74-3.46-.73-7.25-1.89-3.52-1.07-3.53-2.38-6.41-2.64-2.4-.22-3.57.59-4.24-.19-1.1-1.28 1.26-4.35-.19-6.12-.41-.5-.69-.37-1.04-.94-.88-1.45.11-3.58.33-4.05.58-1.24.93-1.08 1.13-1.84.46-1.7-.93-3.88-2.54-5.09-2.23-1.68-4-.84-4.66-2.12-.48-.95.33-1.69.96-3.13-4.12 4.59-6.82 5.42-8.63 4.93-3.08-.83-4.24-5.59-6.99-5.3-1.56.17-2.28 1.79-3.56 2.44.15.99.36 2.05.66 3.16 1.36 5.02 3.04 5.73 2.7 8.3-.56 4.17-5.22 3.87-7.1 9.4-1.04 3.06-.48 5.68-2.1 6.4-.23.1-.44.14-.65.13.3 1.24.77 2.57 1.51 3.9 2.56 4.59 5.81 4.62 6.52 7.87Z"></path><path class="cls-6" d="M191.17 114.97c3.49 2.57 5.31 3.91 8.26 4.33.34.05 5.78.75 10.13-2.67.87-.68 1.52-1.19 2.07-2.13 1.98-3.4-.63-6.73.67-8.67.63-.95 2.31-1.72 6.89-.94 1.29-2.29 3.65-4.95 2.97-8.06-.72-3.25-3.96-3.28-6.53-7.86-.74-1.33-1.22-2.66-1.51-3.9-.76-.03-1.42-.64-2.55-.73-4.86-.39-7.44 9.84-11.79 9.5-1.82-.14-3.38-2.07-3.9-3.6-1.02-2.99 1.71-5.14.5-7.8-.93-2.03-3.38-2.63-3.7-2.7-2.29-.52-4.92.53-6.92 2.75.07.19.12.39.16.62.39 2.42-2.06 2.87-2.4 6.67-.27 3.05 1.21 3.69.67 6.67-.5 2.7-1.84 2.84-1.87 4.93-.03 3.04 2.79 4 2.4 6-.08.42-.29.81-.59 1.17 2.58 2.87 5.07 4.96 7.06 6.43ZM171.32 145.7c.54-.48.78-1.28.53-5.2-.4-6.41-1.18-6.76-.93-9.07.56-5.14 4.67-5.39 4.6-9.4-.08-4.18-4.58-5.59-4.27-9.6.09-1.12.52-2.1 1.1-2.95-1.77-1.04-3.23-2.43-4.44-3.58-3.26-3.1-3.53-5.06-6.66-6.8-.85-.48-1.69-.81-2.49-1.04.05.34.1.46.03.78-.62 2.62-5.52 1.74-8.4 4.9-2.27 2.5-2.37 6.51-1.9 8.9.5 2.52 1.6 3.04 1.4 4.5-.17 1.24-1.23 2.72-4.69 4.16 1.17 1.69 1.88 3.52 1.8 4.94-.03.46-.18 1.82.2 3.6.22 1.01.45 1.38.6 2 .05.2.08.4.1.59 5.72 5.58 10.95 8.99 14.76 11.07 5.03 2.75 7.51 3.18 8.65 2.19Z"></path><path class="cls-6" d="M180.44 128.84c2.53 1.97 3.9 2.27 4.8 2.33 2.19.16 2.56-.99 4.6-.93 3.61.1 5.04 3.82 7.06 3.13 1.25-.42 1.88-2.25 1.93-3.53.11-2.78-2.46-3.77-3-6.27-.24-1.11-.11-2.68 1.34-4.84-1.84-.69-3.48-1.9-6.01-3.76a46.68 46.68 0 0 1-7.06-6.43c-1.31 1.57-4.43 2.59-7.13 2.43-1.74-.1-3.27-.69-4.63-1.49-.58.85-1.01 1.83-1.1 2.95-.31 4 4.19 5.42 4.27 9.6 0 .57-.07 1.07-.2 1.51 1.88 2.54 3.77 4.23 5.14 5.29Z"></path><path class="cls-6" d="M196.47 136.24c-.71.84-1.66.78-1.9 1.6-.36 1.25 1.32 3.33 3 3.4 1.26.06 1.46-1.07 2.9-1.3 2.05-.33 2.87 1.74 5.19 2 2.15.24 4.89-1.16 5.19-2.8.45-2.47-4.98-3.5-5.8-7.8-.54-2.88 1.59-4.01 1.4-7.5-.1-1.89-.84-3.54-1.76-4.89-2.76.68-5.06.38-5.28.35-.82-.12-1.55-.31-2.25-.57-1.45 2.16-1.58 3.73-1.34 4.84.54 2.49 3.11 3.49 3 6.27-.05 1.23-.63 2.96-1.79 3.47.2 1.48-.11 2.37-.57 2.92ZM58.84 141.03c.09-.79.08-3.19 1.7-4.7.27-.25 1.04-.98 2-.9 1.09.09 1.29 1.13 2.2 1.3 1.48.28 3.82-1.95 4-4.3.14-1.93-1.29-2.22-1.5-4.4-.28-2.91 2.17-3.74 2.1-6.4-.08-3.21-3.69-3.67-3.8-6.4-.12-3.12 4.58-3.38 8-9.3 1.31-2.27 3.37-5.83 2.4-9.3-.3-1.08-1-2.51-.9-4.7.07-1.55.5-2.56.7-3.2 1.3-4.17-1.32-11.12-5.4-12.7-2.72-1.05-3.62 1.25-7.7.9-5.84-.5-7.33-5.51-10.9-4.9-4.3.73-4.07 8.35-8.29 9-3.6.55-8.45-4.24-8.09-7.5.13-1.19.94-2.02.6-3.6-.23-1.06-.98-2.5-2.1-2.6-.63-.06-1.4.31-1.5.8-.14.66 1.05 1.01 1.2 1.9.18 1.05-1.13 2.55-2.4 2.9-2.26.62-3.86-2.53-10.19-8.5-4.31-4.06-7.8-6.59-7.1-8.5.25-.66.78-.68 1.1-1.3.55-1.08 0-3.16-4.17-7.44-.01.13-.06.25-.14.37-.42.55-1.18.18-2.12.42-2.25.59-1.94 3.83-4.24 4.81-1.61.69-2.75-.5-3.67.28-1.25 1.06-.27 4.17 0 4.95.97 2.83 2.77 4.93 8.9 9.89 5.9 4.79 9.11 6.79 8.9 9.47-.05.62-.33 1.84.14 3.39.22.72.63 2.09 1.77 2.68 1.5.78 2.73-.59 4.17 0 1.47.61 1.87 2.75 2.12 4.1 1.01 5.38-1.71 8.11-.07 10.11 1.01 1.23 2.94 1.3 4.38 1.34 1.18.04 3.28.11 4.59-1.13 2.53-2.39.33-7.98 1.34-8.27.46-.13 1.46.86 1.55 1.91.14 1.53-1.7 2.75-1.51 4.6.02.18.05.27.09.35.44.73 2.15.17 4.38.07 2.03-.09 3.04-.14 3.67.42 1.46 1.3.92 5.43-1.27 7.78-1.44 1.55-2.52 1.16-4.24 3.11-1.22 1.38-2.39 3.52-1.77 4.31.71.9 3.15-.67 3.88.21.76.92-.9 3.81-2.4 5.65-1.84 2.25-3.38 2.84-3.18 3.82.2.97 1.78.76 3.39 1.98 2.16 1.64 1.79 3.89 3.32 7.35 1.15 2.59 1.62 1.91 4.52 6.22 3.97 5.9 3.7 8.06 5.91 9.02 4.19-2.05 5.46-3.9 5.63-5.38ZM399.97 600.1c-2.75-2.92-4.03-2.03-5.28-4.05-2.57-4.19 2.58-8.57.09-13.19-1.54-2.86-4.84-3.64-4.61-6.12.06-.72.43-1.61.94-1.69.99-.17 1.72 2.77 2.92 2.73.91-.03 1.82-1.75 2.07-3.39.48-3.2-1.84-4.47-3.77-9.61-.33-.88-.61-1.77-.83-2.63-1.71-.14-3.51.07-5.06 1.07-3.49 2.25-2.64 6.59-6.2 8.4-1.46.74-2.41.42-7.19.1-1.95-.13-3.72-.21-5.28-.25 1.29 4.2 3.68 7.27 2.38 10.45-.2.48-.59 1.26-.6 2.4 0 2.46 1.84 3.08 1.9 4.7.08 2.26-3.44 3.17-8.5 7.8-2.52 2.31-3.78 3.46-4 4.7-.91 5.23 9.08 10.91 14.29 13.1 3.45 1.44 5.84 2.41 8.7 1.7 3.93-.98 4.71-4.13 8.7-5.8 2.02-.85 5.08-1.39 9.6-.05 1.01-.62 2.38-.41 3.11-1.58 1.34-2.16-1.1-6.34-3.39-8.77Z"></path><path class="cls-6" d="M393.85 550.44c-1.21-6.8-2.94-7.49-4.33-13.38-1.5-6.33-.16-8.34-2.64-11.31-1.66-1.99-3.12-2.12-3.77-4.24-.7-2.28.5-3.77-.47-6.79-.4-1.26-.76-1.47-1.32-2.64-1.12-2.37-.95-4.28-.78-6.21-2.05.65-3.98.92-5.78.93-3.61.01-5.21-1.04-8.5-.8-2.51.18-4.85 1.04-7.04 2.37.76 2.58 1.15 5.3 1.04 7.83-.05 1.01-.8 4.7-2.3 12.1-.89 4.39-1.18 5.47-.7 7.2 1.02 3.71 3.83 4.14 5 8.4.76 2.75-.32 2.93.4 5.6 1.22 4.56 4.57 4.88 5.8 8.7 1.19 3.69-1.71 4.1-1.4 9.4.08 1.39.36 2.67.72 3.85 1.56.04 3.33.12 5.28.25 4.79.32 5.74.64 7.19-.1 3.56-1.8 2.71-6.14 6.2-8.4 1.54-1 3.35-1.21 5.06-1.07-.77-2.96-.87-5.5-.12-5.85.62-.28 1.44 1.04 2.16.76 1.35-.52.45-5.75.3-6.59Z"></path><path class="cls-6" d="M374.77 506.81c1.8 0 3.73-.28 5.78-.93.11-1.22.23-2.44.03-3.78-.59-3.91-3.06-3.33-6.4-9.14-1.84-3.2-4.95-8.59-3.86-14.51.6-3.24 2.52-6.99 1.13-8.1-.51-.41-1.09-.15-1.79-.76-.97-.83-.77-2.1-1.04-3.58-.35-1.95-1.61-4.86-3.58-5.56-.97-.34-1.94-.09-2.81.23.45 1 .71 2.08.26 2.93-.71 1.32-2.48.77-5.8 2-3.4 1.27-3.96 2.75-6 2.5-1.76-.22-1.85-1.38-3.4-1.7-3.71-.76-9.74 4.67-9.39 9.3.17 2.28 1.82 3.56 1.1 5.9-.08.27-.66 2.05-2 2.4-.02 0-.05 0-.08.02.88 2.05 2.02 3.15 3.08 3.78 1.83 1.09 3.61.86 4.6 2.5 1.02 1.7-.13 3.19.9 4.7 1.01 1.49 3.07 1.39 4.5 1.7 4.01.87 7.56 5.94 9.25 11.67 2.19-1.33 4.53-2.19 7.04-2.37 3.29-.24 4.89.81 8.5.8Z"></path><path class="cls-6" d="M309.2 532.21c6.3-4.33 8.55-.44 19.89-4.7 8.1-3.05 16.72-8.71 16.09-13.2-.32-2.32-3.04-3.77-2.3-5.4.52-1.15 2.45-1.66 3.9-1.4 1.29.23 1.96 1.04 2.5 1.4 1.2.81 3.67.63 9.06-3.07-1.89-4.62-4.96-8.39-8.36-9.13-1.44-.31-3.48-.21-4.5-1.7-1.03-1.51.13-3-.9-4.7-.99-1.64-2.77-1.41-4.6-2.5-1.06-.63-2.19-1.74-3.08-3.78-1.29.28-1.96-1.12-3.22-1.01-2.36.2-2.44 5.36-4.9 5.9-1.92.42-4.69-2.11-5-4.6-.19-1.57.74-1.92.8-3.6.12-3.08-2.85-6.66-6.2-7.5-3.12-.78-4.18 1.43-6.99.5-3.07-1.01-3.08-4.07-5.9-5-1.18-.39-2.98-.44-5.68 1.08.34.88.49 1.5.45 1.97-.17 1.86-1.34 1.88-2.33 4.59-1.04 2.86-.03 3.62-.99 4.95-1.89 2.62-6.64.8-7.63 2.9-.62 1.32.65 3.29 1.55 4.24 2.16 2.28 4.77 1.48 5.37 2.97.64 1.58-2.16 2.82-3.39 6.5-.94 2.8.25 3.4.07 8.62-.14 4.21-.25 7.17-2.19 9.47-2.45 2.89-5.22 1.66-6.5 4.17-1.54 3 2.09 5.46.64 9.61-.95 2.71-3 3.1-2.9 5.44.07 1.65 1.1 1.81 1.77 4.52.61 2.49-.04 3.27.78 4.17 1.29 1.42 3.41.03 4.73 1.34.43.42.51.87.52 2.65 1.74-.43 3.7-1.11 5.74-2.2 7.53-4.05 7.51-9.26 13.68-13.5Z"></path><path class="cls-6" d="M312.1 582.4c8.06-.47 10.12-1.35 15.99-.93 6.35.45 14.91 1.05 17.99 6.4 1.57 2.73.52 4.63 3.2 9.46 1.22 2.21 2.36 4.19 4.66 5.2 1.77.78 3.58.69 5.04.36-.08-.47-.09-.93 0-1.4.22-1.24 1.48-2.39 4-4.7 5.06-4.63 8.58-5.54 8.5-7.8-.06-1.62-1.91-2.24-1.9-4.7 0-1.14.41-1.92.6-2.4 1.66-4.07-2.73-7.96-3.1-14.3-.31-5.3 2.59-5.71 1.4-9.4-1.23-3.82-4.58-4.14-5.8-8.7-.72-2.67.36-2.84-.4-5.6-1.17-4.26-3.97-4.69-5-8.4-.48-1.73-.19-2.81.7-7.2 1.5-7.39 2.25-11.09 2.3-12.1.15-3.38-.59-7.09-1.93-10.37-5.39 3.7-7.86 3.87-9.06 3.07-.54-.36-1.2-1.17-2.5-1.4-1.45-.26-3.37.25-3.9 1.4-.74 1.62 1.97 3.08 2.3 5.4.63 4.49-7.99 10.15-16.09 13.2-11.34 4.26-13.59.37-19.89 4.7-6.18 4.24-6.15 9.45-13.69 13.5-2.03 1.09-4 1.77-5.74 2.2 0 .85-.02 1.99-.02 3.58-.02 3.77.04 4.48.56 5.3.91 1.43 1.85 1.05 3.04 2.62 1.18 1.55.56 2.32 1.55 4.81 1.29 3.22 3.17 4.05 2.68 5.16-.5 1.15-2.95 1.3-3.74 1.34-1.9.12-2.46-.48-3.18 0-1.29.86-1.34 4.04 0 5.02.6.43 1.07.15 3.32.07 2.49-.08 4.1-.14 4.8.7.58.7.37 1.8-.14 3.47-.28.91-.57 1.73-.87 2.49 3.73.2 8.61.29 14.31-.05Z"></path><path class="cls-6" d="M301.84 630.93c3.38.37 4.5 2.78 7.86 4.8 3.81 2.29 4.69.6 7.33 2.67 1.95 1.53 1.77 2.69 4.8 8.27 3.86 7.12 5.25 7.24 5.73 7.2 1.71-.14 2.1-3.12 4.4-3.33 1.49-.14 1.74 1.08 3.2 1.07 3.01-.02 4.25-5.18 6.93-4.93 1.06.1 1.1.93 2.13.93 2.22 0 2.72-3.84 5.06-4.27 1.96-.36 2.61 2.15 5.19 2.4 3.36.32 7.26-3.43 6.93-6-.19-1.49-1.69-1.74-1.73-3.33-.04-1.58 1.38-3.38 3.06-3.86 2.22-.65 3.28 1.45 5.73.93 1.84-.39 3.48-2.05 3.73-3.73.25-1.71-1.07-2.6-1.33-3.86-.39-1.91 1.61-4.8 9.7-9.35-2.29.15-4.43-.71-7.3-1.92-4.75-1.99-13.47-6.89-14.29-11.7-1.46.33-3.26.41-5.04-.36-2.31-1.01-3.44-2.99-4.66-5.2-2.68-4.84-1.63-6.74-3.2-9.47-3.07-5.35-11.64-5.95-17.99-6.4-5.87-.41-7.92.46-15.99.93-5.7.34-10.58.24-14.32.05-1.14 2.91-2.41 4.95-3.58 7.55-.73 1.62-1.61 3.59-2.19 6.29-.78 3.59-1.48 6.82-.07 9.97 1.43 3.19 3.93 3.79 3.96 6.71 0 1.17-.39 1.37-.5 3.39-.09 1.65.11 2.85.42 4.74.63 3.75 1.34 5.05.5 6.43-.41.67-.68.55-1.27 1.2-.25.28-.44.56-.58.86 1.38.65 3.09 1.23 5.11 1.34 1.27.07 1.31-.11 2.27 0Z"></path><path class="cls-6" d="M404.68 621.4c-.56-1.66-1.88-1.54-3.48-3.58-1.37-1.73-2.74-4.76-1.69-6.59.2-.36.47-.6.75-.77-4.52-1.34-7.57-.8-9.6.05-3.98 1.67-4.77 4.82-8.7 5.8-.48.12-.94.19-1.39.22-8.09 4.55-10.09 7.44-9.7 9.35.26 1.27 1.58 2.15 1.33 3.86-.25 1.69-1.9 3.34-3.73 3.73-2.45.52-3.51-1.58-5.73-.93-1.68.49-3.11 2.28-3.07 3.86.04 1.59 1.54 1.85 1.73 3.33.08.63-.09 1.33-.45 2.02.77.65 1.46 1.49 1.78 2.58.69 2.37-.96 3.97 0 5.6.9 1.53 2.78.87 4.93 2.2 2.78 1.72 1.6 4.04 4.07 7.33 3.6 4.8 9.01 3.74 10.99 8.73.5 1.24.21 1.44.67 2.33 1.26 2.46 4.67 3.41 8.54 3.65-.45-.41-1.05-.88-1.38-1.8-.4-1.12.11-1.45-.28-3.11-.22-.93-.5-2.12-1.22-2.36-1.28-.42-2.74 2.51-3.48 2.17-.74-.34-.5-3.78 1.51-5.75.83-.81 2.01-1.43 2.35-1.13.31.27-.33 1.04 0 1.79.39.88 1.98 1.39 3.01.94 1.52-.66 1.9-3.45 1.32-5.47-.66-2.28-2.11-2.06-3.3-4.52-1.1-2.29-.01-2.8-.94-7.07-.6-2.74-1.44-4.33-.76-4.9.68-.57 1.97.66 3.11 0 .85-.49 1.35-1.86 1.04-2.92-.66-2.24-4.77-2.38-4.71-3.58.03-.47.67-.91 1.22-.94 1.15-.07 1.38 1.86 2.92 2.26 1.91.49 4.22-.3 4.9-1.79.42-.91.2-2.05-1.51-4.9-3.78-6.29-6.5-6.93-6.4-9.42.12-3.21 4.77-6.38 6.97-5.56.67.25 1.4.98 1.32 1.6-.11.85-1.66.85-1.98 1.79-.09.28-.23 1.08 2.16 3.39 2.6 2.51 3.99 3.86 5.28 3.39 1.42-.52 2.22-3.06 1.6-4.91Z"></path><path class="cls-6" d="M391.93 674.18c-3.87-.24-7.28-1.19-8.54-3.65-.46-.9-.17-1.09-.67-2.33-1.98-4.99-7.4-3.93-10.99-8.73-2.46-3.29-1.29-5.61-4.07-7.33-2.15-1.33-4.03-.67-4.93-2.2-.02-.03-.03-.06-.05-.09-.99 1.18-1.85 2.68-1.92 4.46-.09 2.13 1.04 2.68 1.4 4.8.78 4.6-3.79 6.19-3.7 10.9.08 4.24 3.82 4.88 3.5 8.6-.39 4.57-6.34 7.22-5.6 8.6.56 1.03 3.76-.71 5.8 1 1.62 1.36.45 3.17 1.9 5 2.26 2.85 6.89.73 9.1 3.3.58.68 1.1 1.82.94 3.86.02.11.06.21.16.3.8.8 3.86-.18 5.37-2.26.61-.83.87-1.72 1.04-5.46.27-6.14-.27-7.92.94-8.86 1.39-1.07 2.81.71 4.71-.38 2.26-1.29 1.18-4.35 4.05-6.59 1.1-.85 2.12-1.08 2.16-1.89.02-.42-.24-.7-.6-1.02Z"></path><path class="cls-6" d="M373.17 696.49c-2.2-2.57-6.84-.45-9.1-3.3-1.45-1.83-.28-3.64-1.9-5-1.67-1.4-4.11-.49-5.25-.67-.52 1.12-1.32 2.26-2.58 2.74-3.31 1.27-6.29-3.33-10.13-2.13-2.25.7-4.06 3.18-4.13 5.33-.06 1.95 1.35 2.55 1.2 4.27-.19 2.24-2.81 3.71-5.06 4.93-5.5 2.98-11.93 3.97-12.39 2.8-.27-.69 1.85-1.38 1.73-2.67-.23-2.54-9.05-5.8-14.79-3.07-1.19.56-2.18 1.35-3.86 1.33-2.5-.03-3.15-1.8-5.46-1.87-2.17-.06-4.3 1.41-5.33 3.07-1.33 2.13-.11 3.41-.8 6.53-1.06 4.82-4.76 5.35-4.53 8 .34 3.97 8.76 4.18 9.6 8.67.58 3.11-3.16 4.61-3.86 8.93-.53 3.3 1 6.47 2.9 9.04.92-.7 2.01-1.43 3.36-2.16 3.26-1.79 3.89-1.37 6.97-3.39 2.69-1.76 3.3-2.79 5.18-3.01 2.76-.33 3.76 1.63 5.93.94 2.16-.68 3.2-3.22 3.58-4.14 1.33-3.24-.1-4.88 1.13-6.12 2.08-2.1 7.61 1.08 8.76-.66.69-1.04-1.03-2.59-.28-3.67 1.07-1.56 5.28.69 7.16-1.32.76-.82.25-1.39 1.03-2.45 1.44-1.95 3.88-.97 6.41-2.17 3.79-1.8 2.34-5.93 6.03-8.01 3.35-1.89 6.14.63 8.48-1.51 2-1.83.5-4.17 2.64-6.22 2.45-2.36 7.35-2.06 8.2-.47.26.49.05.94.13 1.3.16-2.05-.36-3.19-.94-3.87ZM278.12 645.59c.41 1.81-.96 2.54-1.46 5.33-.7 3.9.97 8.02 3.2 10.53 2.22 2.5 3.43 1.66 5.06 3.87 2.93 3.96.04 8.02 2.27 9.87 2.57 2.13 10.09-.22 13.46-4.93 1.5-2.1 1.96-4.36 3.33-4.4 1.66-.05 2.13 3.21 4.8 3.86 1.82.45 2.37-.89 4.4-.93 4.32-.1 5.7 5.84 9.6 5.87 2.43.01 5.26-2.28 5.46-4.53.34-3.84-7.09-5.78-6.93-10.67.05-1.52.81-2.76 1.33-3.6.91-1.48 2.07-2.48 3.11-3.16-.88-.98-2.13-2.77-3.91-6.04-3.03-5.58-2.85-6.74-4.8-8.27-2.64-2.07-3.52-.37-7.33-2.67-3.36-2.02-4.48-4.43-7.86-4.8-.96-.11-1 .07-2.27 0-2.02-.12-3.73-.69-5.11-1.34-1.07 2.21.45 4.99-.69 8.11-.98 2.68-3.7 4.99-5.51 4.59-1.72-.38-1.58-2.99-3.74-3.96-1.32-.59-2.92-.31-5.58.99a25.32 25.32 0 0 0-4.36 2.7c1.63.79 3.16 1.93 3.53 3.58Z"></path><path class="cls-6" d="M362.69 649.84c-.84-1.6.72-3.18.05-5.51-.31-1.08-1.01-1.93-1.78-2.58-1.1 2.14-3.94 4.22-6.48 3.98-2.59-.25-3.23-2.76-5.19-2.4-2.35.43-2.84 4.27-5.06 4.27-1.04 0-1.07-.83-2.13-.93-2.68-.25-3.92 4.91-6.93 4.93-1.46 0-1.71-1.21-3.2-1.07-2.3.21-2.68 3.19-4.4 3.33-.26.02-.79 0-1.82-1.16-1.04.68-2.2 1.68-3.11 3.16-.52.84-1.28 2.08-1.33 3.6-.16 4.89 7.27 6.82 6.93 10.67-.2 2.26-3.03 4.55-5.46 4.53-3.9-.02-5.28-5.97-9.6-5.87-2.03.05-2.57 1.38-4.4.93-2.67-.66-3.14-3.92-4.8-3.86-1.37.04-1.83 2.3-3.33 4.4-3.37 4.71-10.89 7.06-13.46 4.93-.22-.18-.38-.38-.51-.6-2.24 1.05-3.96 2.74-4.82 4.87-.34.85-1.12 2.79-.4 4.8 1.78 4.98 10.84 5.16 10.79 7.73-.02 1.1-1.66 1.35-1.73 2.4-.08 1.13 1.7 2.76 9.14 5.08.58-.19 1.18-.3 1.79-.28 2.31.07 2.97 1.83 5.46 1.87 1.69.02 2.67-.77 3.86-1.33 5.74-2.73 14.56.53 14.79 3.07.11 1.28-2 1.97-1.73 2.67.46 1.17 6.9.19 12.39-2.8 2.26-1.23 4.87-2.69 5.06-4.93.15-1.72-1.26-2.32-1.2-4.27.07-2.15 1.88-4.63 4.13-5.33 3.83-1.2 6.82 3.41 10.13 2.13 1.26-.48 2.06-1.63 2.58-2.74-.25-.04-.45-.14-.54-.32-.75-1.38 5.21-4.03 5.6-8.6.32-3.72-3.42-4.36-3.5-8.6-.09-4.71 4.48-6.31 3.7-10.9-.36-2.13-1.49-2.67-1.4-4.8.07-1.78.93-3.29 1.92-4.47Z"></path><path class="cls-6" d="M234.54 688.53c2.01 2.56 5.25.97 7.19 3.47 2.16 2.76-.09 6.89 1.73 7.86 1.33.71 2.79-1.37 5.19-.53.99.34 1.47.95 2.8 1.07.97.09 1.49-.16 2.13-.27 2.97-.49 4.13 2.77 7.19 2.67 1.46-.05 1.18-.78 4.53-1.73 2.13-.61 2.57-.4 3.33-.93 1.9-1.33 1.56-4.28 1.87-5.86.46-2.41 3.11-5.33 12.41-7.82-.65-.61-1.18-1.32-1.49-2.18-.72-2.01.05-3.95.4-4.8.85-2.12 2.58-3.82 4.82-4.87-1.21-2.04.89-5.69-1.75-9.27-1.63-2.21-2.85-1.37-5.06-3.87-2.23-2.51-3.9-6.63-3.2-10.53.51-2.79 1.88-3.52 1.46-5.33-.37-1.64-1.9-2.79-3.54-3.58-1.74 1.33-3.33 2.84-5.31 4.65-7.42 6.79-9.89 8.2-11.09 7.49-.86-.51-.42-1.71-1.55-2.48-1.51-1.01-4.46-.34-6.01 1.41-1.78 2.01-.59 4.17-2.26 5.58-.67.57-1.51.76-5.08.5-6.89-.52-8.79-1.61-10.59-.28-1.27.93-2.1 2.76-1.63 3.82.43.96 1.69.79 2.12 1.77.45 1.03-.65 1.92-1.41 3.75-1.08 2.58-.62 4.9-.7 6.19 1.68 2.62 2.33 4.93 2.56 6.77.42 3.42-.58 5.41.94 7.34ZM296.49 734.54c-2.52-3.07-4.24-3.58-5.38-3.36-3.06.58-3.66 6.57-6.99 6.73-1.39.07-2.9-.88-2.86-1.46.03-.51 1.23-.54 1.46-1.33.24-.79-.6-1.9-1.53-2.4-1.46-.79-3.43-.23-4.73.67-2.48 1.71-2.42 4.62-4 4.73-.84.06-.98-.77-2.13-1-1.97-.39-4.75 1.4-5.19 3.53-.38 1.79 1.14 2.6.93 4.93a5.63 5.63 0 0 1-.72 2.25c.79.69 1.49 1.67 1.63 2.76.28 2.01-1.53 2.88-1.04 4.24.63 1.73 4.39 2.62 6.97 1.51 1.4-.61 1.37-1.34 3.01-1.98 2.04-.8 2.72.07 4.52-.47 2.64-.8 2.55-3.1 5.18-4.34 2.01-.94 2.83.03 5.37-.28 3.75-.45 4.52-2.89 8.42-5.85-1.88-2.53-3.39-5.63-2.92-8.88Z"></path><path class="cls-6" d="M300.37 725.45c-.84-4.48-9.26-4.7-9.6-8.67-.22-2.65 3.47-3.18 4.53-8 .69-3.12-.53-4.4.8-6.53.74-1.19 2.06-2.28 3.54-2.79-7.44-2.31-9.22-3.95-9.14-5.08.07-1.05 1.71-1.31 1.73-2.4.04-2.13-6.16-2.62-9.31-5.55-9.3 2.49-11.95 5.41-12.41 7.82-.31 1.59.03 4.53-1.87 5.86-.76.53-1.2.33-3.33.93-3.35.95-3.08 1.69-4.53 1.73-.13 0-.26 0-.38-.01 1.01 1.49 2.04 3.55 2.41 6.11.22 1.51.43 3.02-.2 4.7-1.56 4.14-6.17 3.66-7.1 6.8-.96 3.27 3.59 5.38 2.7 8.9-.87 3.46-5.86 3.75-5.9 6.3-.03 2.3 4.01 2.82 5.6 6 1.04 2.09 1.06 5.42-2.26 10.97.26.09.54.18.86.29 3.53 1.24 4.31 1.74 5.28 1.32.93-.41 1.63-1.51 1.6-2.45-.03-.89-.69-1.08-.94-2.26-.18-.87-.14-2.23.47-2.54.51-.26 1.52.14 2.42.92.35-.62.64-1.38.72-2.25.21-2.33-1.31-3.14-.93-4.93.45-2.13 3.23-3.93 5.2-3.53 1.15.23 1.29 1.06 2.13 1 1.58-.12 1.52-3.02 4-4.74 1.3-.9 3.28-1.45 4.73-.67.93.5 1.77 1.61 1.53 2.4-.24.79-1.44.82-1.46 1.33-.03.58 1.48 1.54 2.86 1.47 3.34-.17 3.94-6.15 6.99-6.74 1.14-.22 2.85.29 5.38 3.36 0-.05.01-.11.02-.16.7-4.32 4.45-5.82 3.87-8.93ZM218.55 718.69c1.24.4 2.3-2.18 4.7-2.3 1.86-.09 2.3 1.41 4 1.4 2.3-.01 4.98-2.83 5.3-5.6.49-4.32-5.04-6.02-6-10.3-.65-2.91.8-7.1 8.1-13.24-.03-.04-.07-.08-.1-.12-1.52-1.94-.52-3.92-.93-7.33-.22-1.84-.87-4.15-2.56-6.77-.03.51-.16.87-.5 1.02-.66.28-1.08-.67-2.54-.64-1.42.03-1.77.94-2.83.92-1.46-.03-1.77-1.78-3.46-3.04-2.2-1.63-3.72-.18-7.42-1.2-4.13-1.14-5.17-3.76-6.57-3.11-2.21 1.03-.41 7.94-2.54 8.69-.81.29-1.26-.65-2.75-.85-3.02-.4-6.88 2.64-6.71 5.02.15 2 3.03 1.75 4.73 5.16.15.3 1.78 3.66.5 6.64-.46 1.08-.86 1.07-1.2 2.19-.76 2.51.53 4.9.64 5.09.92 1.66 1.72 1.39 2.47 3.11.6 1.38.3 2.06.99 2.68.91.82 1.9.07 3.32.43 3.14.78 3 5.6 6.01 6.29 1.55.36 2.31-.77 3.53-.07 1.48.85 2 3.42 1.2 4.17-.12.11-.25.16-.39.19.28 1.09.67 1.47 1.03 1.58Z"></path><path class="cls-6" d="M262.83 708.89c-.37-2.57-1.4-4.62-2.41-6.11-2.78-.17-3.97-3.13-6.82-2.65-.65.11-1.17.35-2.13.27-1.33-.12-1.81-.72-2.8-1.07-2.41-.84-3.86 1.25-5.19.53-1.82-.97.42-5.1-1.73-7.86-1.92-2.45-5.07-.96-7.09-3.34-7.3 6.14-8.75 10.33-8.1 13.24.85 3.83 5.36 5.58 5.96 9 1.83-.37 2.99-.03 3.74.4 2.51 1.47 1.87 4.91 5.19 7.3 1.29.93 1.5.49 2.8 1.5 2.73 2.12 2.47 4.57 4 5.4 1.08.59 3.12.41 7.36-3.03-.22-.65-.28-1.33-.06-2.07.93-3.13 5.54-2.67 7.1-6.8.63-1.68.41-3.2.2-4.7Z"></path><path class="cls-6" d="M237.94 724.99c.3 3.77-3.4 5.87-2.2 8.8 1.1 2.69 5.48 4.08 9.3 5.3 2.71.86 3.9.85 4.8 2.1 1.37 1.91.01 3.9.6 6.6.26 1.21.95 2.67 2.64 4.21.28-.12.94 0 2.59.56 3.32-5.55 3.31-8.88 2.26-10.97-1.58-3.18-5.63-3.69-5.6-6 .03-2.56 5.02-2.84 5.9-6.3.69-2.73-1.88-4.6-2.63-6.83-4.24 3.44-6.28 3.62-7.36 3.03-1.53-.83-1.27-3.28-4-5.4-1.3-1.01-1.51-.57-2.8-1.5-3.33-2.39-2.69-5.83-5.19-7.3-.75-.44-1.91-.77-3.74-.4.07.41.09.84.04 1.3-.19 1.66-1.23 3.33-2.52 4.41 6.14 3.22 7.74 6.16 7.92 8.4Z"></path><path class="cls-6" d="M192.87 731.99c2.75 3.35 1.26 4.72 4 8.2 2.27 2.88 6.5 5.99 10.9 5.6 3.76-.34 3.67-2.88 7.49-3.7 4.53-.97 8.87 1.72 16.09 6.2 5.07 3.14 5.42 4.15 7.6 4.5 4.08.65 8.1-2.05 11.43-5.35-.4-2.52.78-4.43-.53-6.24-.89-1.24-2.09-1.24-4.8-2.1-3.81-1.21-8.2-2.61-9.3-5.3-1.2-2.93 2.5-5.03 2.2-8.8-.18-2.23-1.77-5.18-7.92-8.39-.87.73-1.85 1.19-2.78 1.19-1.69 0-2.14-1.49-4-1.4-2.39.12-3.46 2.7-4.7 2.3-.36-.11-.76-.49-1.03-1.57-.73.15-1.76-.52-2.37.02-.6.53-.24 1.77.56 4.95 1.11 4.42 1.17 5.07.78 5.44-.78.74-3 .04-4.38-1.13-1.51-1.28-1.02-2.28-2.54-3.39-.14-.1-1.97-1.4-4.17-1.06-1.37.21-2.02.92-2.54.56-.62-.42-.07-1.61-.28-2.68-.51-2.6-5.55-4.71-10.17-4.45-4.79.27-4.86 2.85-10.45 3.32-.08 0-.14 0-.22.01.16 1.95.7 4.29 2.24 6.38 2.64 3.58 5.7 3 8.89 6.89Z"></path><path class="cls-6" d="M253.23 760.11c1.1-1.43 1.21-3.92.56-5.75-.44-1.23-1.13-1.9-.85-2.26.03-.04.08-.08.13-.1-1.69-1.54-2.38-3.01-2.64-4.21-.02-.12-.05-.24-.06-.36-3.33 3.31-7.35 6.01-11.43 5.35-2.17-.35-2.53-1.35-7.6-4.5-7.22-4.48-11.56-7.17-16.09-6.2-3.82.82-3.74 3.36-7.5 3.7-1.47.13-2.91-.13-4.28-.65-.65.59-1.05 1.16-.92 1.64.23.84 1.89.66 2.1 1.4.39 1.37-5.08 2.7-6.99 7.3-.44 1.06-.96 2.31-.4 3.2 1.37 2.15 6.65-1.85 12.79.4 2.68.98 4.41 2.74 7.1 2.1 1.22-.29 1.94-.91 2.5-1.3 3.35-2.33 8.18-1.28 12.59-.4 4.67.93 9.73 1.83 15.72 2.85.14-.59 3.65-.13 5.27-2.23Z"></path><path class="cls-6" d="M252.76 764.91c-1.31-2.14-4.81-1.91-4.8-2.54 0-.01 0-.02.01-.03-5.99-1.02-11.05-1.92-15.72-2.85-4.42-.88-9.24-1.93-12.59.4-.56.39-1.27 1.01-2.5 1.3-2.39.57-4.01-.75-6.23-1.75-.09.68-.09 1.45.1 2.28.84 3.67 4.61 4.71 8.86 7.93 5.03 3.82 3.94 5.56 9.66 11 1.83 1.75 4.53 4.02 8.26 6.28.28-.23.59-.39.91-.44.93-.14 1.29.75 2.36 1.04 2.37.64 6.16-2.31 5.93-4.52-.22-2.13-4.09-3.25-3.77-4.14.2-.56 1.67-.04 2.45-.94.98-1.13-.37-3.05.47-3.86.79-.76 2.19.68 3.86.09 2.35-.82 2.89-4.77 3.01-5.65.2-1.42.35-2.55-.28-3.58Z"></path><path class="cls-6" d="M240.51 791.96c-1.16-1.6-3.41-1.36-3.67-2.83-.14-.76.32-1.66.97-2.2-3.74-2.26-6.43-4.54-8.26-6.28-4.44-4.23-4.78-6.22-7.07-8.69-2.04 3.47-4.86 6.72-8.82 8.82-3.92 2.08-7.24 2.13-7.7 4.2-.55 2.49 3.79 4.51 8.9 10.4 2.18 2.51 3.79 4.91 4.96 6.88 1.96.03 7.27.91 8.83 1.76 2.64 1.44 6.67-.02 9.04-2.17 2.99-2.7 4.51-7.58 2.83-9.89ZM164.32 726.92c.67 3.22 2.57 3.65 5.06 8.53 2.37 4.65 1.26 5.46 3.2 7.73 3.26 3.83 7.17 2.44 8.66 5.46 1.45 2.95-1.98 4.85-1.46 9.73.55 5.22 5.23 10.39 9.33 10.53 1.52.05 2.16-.62 4.53-.4 2.95.27 3.49 1.45 5.19 1.2 2.43-.36 4.58-3.23 4.93-6.13.25-2.03-.42-3.72-1.12-4.88-2.65.48-4.61 1.18-5.38-.02-.56-.88-.04-2.14.4-3.2 1.92-4.6 7.39-5.93 6.99-7.3-.21-.74-1.87-.56-2.1-1.4-.13-.48.28-1.06.92-1.64-2.72-1.02-5.1-3.04-6.62-4.96-2.74-3.48-1.25-4.85-4-8.2-3.19-3.89-6.26-3.31-8.9-6.9-1.53-2.09-2.08-4.43-2.24-6.38-3.65.26-4.76-.79-7.13.41-2.55 1.29-3.92 3.84-5.44 3.32-.48-.16-.46-.45-.99-.92-.93-.82-1.99-.84-3.22-.73-1 2.67-.94 4.7-.64 6.14Z"></path><path class="cls-6" d="M138.65 750.09c2.09 3.6 4.87 3.26 11.09 7.3 7.23 4.69 9.04 8.77 12.44 7.95 2.51-.6 3.47-3.29 6.05-2.95 1.89.25 2.22 1.81 3.9 1.75 1.67-.06 2.38-1.65 4.85-3.85.92-.82 1.85-1.52 2.78-2.12-.39-4.72 2.92-6.61 1.49-9.51-1.49-3.03-5.4-1.64-8.66-5.46-1.94-2.28-.83-3.09-3.2-7.73-2.49-4.88-4.39-5.31-5.06-8.53-.3-1.44-.36-3.47.64-6.14-1.43.13-3.08.45-4.97-.11-2.59-.76-2.71-2.29-4.31-2.05-2.06.31-3.91 3.17-3.6 5.51.16 1.18.74 1.27 1.63 3.18.67 1.46 2.08 4.48.99 6.01-1.16 1.62-4.06.02-6.29 2.12-.65.62-.48.82-1.55 2.76-1.57 2.82-2.6 4.67-4.24 5.51-1.35.7-2.13.2-5.41-.32-.11 1.97.12 4.42 1.45 6.7ZM198.51 777.33c2.16 1.35 4.91 3.46 7.82 6.88 1.05-1.35 3.96-1.64 7.33-3.43 3.96-2.11 6.78-5.35 8.82-8.82-.66-.71-1.47-1.46-2.59-2.31-4.25-3.23-8.03-4.26-8.86-7.93-.19-.82-.18-1.6-.1-2.28-.28-.12-.57-.25-.87-.36-2.73-1-5.29-.76-7.41-.38.7 1.16 1.37 2.85 1.12 4.88-.36 2.9-2.5 5.77-4.93 6.13-1.71.26-2.25-.93-5.19-1.2-1.32-.12-2.1.03-2.8.18.3.94.73 1.98 1.38 3.03 1.91 3.12 4.58 4.54 6.29 5.61Z"></path><path class="cls-6" d="M172.58 772.25c3.89 4.99 5.3 11.19 7.46 10.93 1.75-.2 2.02-4.38 4.66-4.8 1.21-.19 2.02.54 2.93.93 1.71.74 4.54.64 9.52-2.82-1.58-1-3.48-2.39-4.94-4.76-.65-1.05-1.08-2.09-1.38-3.03-.56.12-1.06.24-1.73.22-4.1-.14-8.78-5.32-9.33-10.53 0-.08-.01-.14-.02-.22-.93.6-1.86 1.3-2.78 2.12-2.47 2.2-3.17 3.79-4.85 3.85-1.68.06-2.01-1.5-3.9-1.75-2.22-.29-3.25 1.67-5.1 2.6 3.23 1.48 6.69 3.73 9.45 7.27ZM166.88 826.08c-1.5-2.02-2.38-3.58-2.2-5.4.22-2.31 1.99-3.26 1.7-5-.27-1.64-2.13-2.59-4-3.5-8.1-3.94-12.16-5.92-15.29-6.1-1.69-.1-4.24-.06-7.3.69-.1.76-.24 1.56-.43 2.45-.43 1.98-.5 1.47-.92 3.39-1.64 7.55.82 8.96-.64 15.05-.52 2.19-1.29 3.92-.42 5.8.62 1.33 1.57 1.68 1.69 2.97.14 1.41-.91 1.93-1.77 3.82-1.22 2.68-1.27 6.43.35 7.49.68.45 1.52.33 2.33.21 2.47-.35 3.62-2.11 4.24-1.69.4.27.41 1.34-.07 2.05-.99 1.44-3.46.49-4.31 1.91-.38.63.06.9-.28 1.84-.45 1.21-1.48 1.51-3.11 2.68-.87.63-3.35 2.42-3.04 3.32.22.64 1.64.16 4.38.99 1.64.5 1.81.87 3.04 1.06 1.68.26 3.03-.18 3.82-.42 8.62-2.73 9.9-1.87 13-4.24 3.13-2.4 2.33-3.67 5.16-5.02 2.7-1.3 5.47-1.1 6.43-3.11.35-.74.29-1.43.28-1.69-.1-2.27 1.63-6.96 4.82-11.41-2.42-2.23-5.16-5.03-7.46-8.14Z"></path><path class="cls-6" d="M198.37 818.98c.45-1.82 1.16-2.63.7-3.7-.92-2.13-5.15-2.2-5.6-2.2-2.18-.01-2.3.68-3.8.6-4.15-.23-8.54-5.83-7.6-9 .26-.87 1-1.79.7-3.1-.05-.22-.26-1.17-1-1.7-1.85-1.33-4.44 1.86-8.5 1.2-1.67-.27-1.85-.92-3.3-.8-1.97.16-4.18 1.55-4.3 3.1-.1 1.28 1.31 1.93 1 3.2-.19.79-.88 1.18-1.3 1.5-.86.65-1.77 1.9-2.19 4.5 1.57.8 2.96 1.69 3.19 3.1.29 1.75-1.47 2.69-1.7 5-.18 1.81.7 3.38 2.2 5.4 2.3 3.11 5.05 5.91 7.46 8.14 1.8-2.52 4.07-4.96 6.74-6.83 6.14-4.31 8.02-1.15 17-4.97-.09-1.41.07-2.55.29-3.44Z"></path><path class="cls-6" d="M169.18 796.78c.95-3.53 5.2-3.97 8.29-7.5 1.1-1.26 2.28-3.18 2.89-6.19-.1.05-.21.08-.32.09-2.16.25-3.57-5.94-7.46-10.93-2.75-3.54-6.22-5.79-9.45-7.27-.29.14-.6.27-.95.35-3.4.82-5.22-3.26-12.44-7.95-6.23-4.04-9.01-3.7-11.1-7.3-1.32-2.28-1.55-4.73-1.45-6.69-.53-.09-1.12-.17-1.8-.25-4.24-.51-6.35-.76-7.77-.14-3.64 1.58-3.25 5.43-7.13 6.5-1.27.35-3.17.46-3.32 1.27-.09.5.56.89.56 1.91 0 .62-.23.89-.29 1.2-.24 1.44 3.54 2.89 5.86 4.52 4.84 3.41 5.14 8.85 6.99 8.55 1.48-.24 1.32-3.71 3.39-4.24 1.32-.34 2.64.74 3.82 1.69 3.42 2.78 2.75 5.05 5.23 6.36 2.25 1.19 3.35-.36 6.29.85.24.1 4.21 1.79 4.45 4.38.3 3.22-5.53 3.87-9.75 10.18-3.03 4.53-3.58 9.51-3.67 10.46-.34 3.51.28 5.98-.28 10.13 3.07-.76 5.62-.79 7.3-.69 3.13.18 7.19 2.15 15.29 6.1.27.13.54.26.81.4.42-2.6 1.33-3.85 2.19-4.5.42-.32 1.11-.71 1.3-1.5.31-1.27-1.1-1.92-1-3.2.11-1.4 1.93-2.67 3.73-3.02-.36-1.04-.57-2.29-.23-3.58Z"></path><path class="cls-6" d="M199.27 788.08c1.58-3.04 2.11-6.09 2.19-8.66-1.06-.85-2.05-1.54-2.93-2.09-.4-.25-.86-.53-1.35-.84-4.99 3.46-7.82 3.56-9.52 2.82-.91-.39-1.72-1.13-2.93-.93-2.47.39-2.87 4.07-4.34 4.71-.61 3.01-1.79 4.93-2.89 6.19-3.09 3.53-7.35 3.97-8.29 7.5-.34 1.29-.13 2.54.23 3.58.19-.04.38-.07.57-.08 1.45-.11 1.63.53 3.3.8 4.05.66 6.64-2.53 8.5-1.2.57.41.83 1.08.94 1.46 2.12-.91 4.71-2.24 7.46-4.16 3.52-2.45 6.85-4.78 9.09-9.09Z"></path><path class="cls-6" d="M218.76 807.32c1.3-1.91-.25-4.68.38-4.99.1-.05.34-.07.68-.06a47.647 47.647 0 0 0-4.96-6.88c-5.11-5.89-9.44-7.91-8.9-10.4.06-.3.2-.55.37-.77-1.71-2.01-3.37-3.57-4.89-4.79-.08 2.57-.61 5.62-2.19 8.66-2.24 4.31-5.57 6.64-9.1 9.1a42.677 42.677 0 0 1-7.46 4.16c.03.11.05.2.06.24.3 1.31-.44 2.22-.7 3.1-.95 3.17 3.44 8.77 7.6 9 1.5.08 1.62-.61 3.8-.6.45 0 4.68.07 5.6 2.2.46 1.07-.26 1.88-.7 3.7-.22.9-.37 2.03-.28 3.44.78-.33 1.6-.71 2.49-1.15 5.69-2.84 6.52-4.54 11.87-6.12 2.42-.72 6.36-1.59 6.4-3.01.03-1.07-2.14-1.7-1.98-2.92.11-.84 1.16-.83 1.88-1.89Z"></path></g><path class="cls-6" d="M96.18 754.18c-.13.32-.19.61-.42.77s-.35.19-.58.32-.45.32-.45.32-.45.93-.56 1.26-.08.48-.29.61.27.39-.69.26-1.22-.16-1.96-.26-1.35-.26-1.35-.26l-1.03-.13h-.45c-.1 0-.32.26-.16.68s.68 1.51.68 1.51-.06 1.61.16 1.77-.13.34.48.31.8-.15 1.16.14.42.48.74.52.61-.45 1 0 .8.87.8.87.65.97.92 1.45.43.49.63.99.45.89.45.89 1.26 4.64 1.42 5.74.39 3.48.45 3.96-.12.64.13.8.54.32.64.39.03-.13.23.42.03 1.09.39 1.32.74.26.84.19.26-.03.29-.26-.32-.74 0-1.03.2-.19.34-.61.78-.09.32-.85-.85-.44-1.01-.87-.63.28-.21-.64.73-1.59.73-1.59.52-.94.18-1.18-.19-.27-.1-.89.05-.97.26-.87.33-.07.52-.79 1.06-2.5 1.29-3.06.2-.52.34-1.27.76-.08.38-1.78-.36-2.02-.36-2.02-.09-.89-.01-1.52-.17-1.17 0-1.49.28-.35 0-.84-.6-.86-.83-1.24-.27-.28-.68-.76-.8-.54-1-.85-.64-.39-.9-.59-.44-1.11-.74-1.07-.47-.22-.75 0-.6-.23-.72.21-.5.98-.5.98ZM503.25 794.31l.9-.79 1.38-.35v2.19l-.33.55-1.31-.55-.64-1.05ZM529.17 798.3l.61 1.55-2.45 1.43-1.34-1.43 1.75-.57.46-1.33.97.35ZM499.65 823.3l-.92-2.96.95-1.9h2.84l.95 1.9-1.52 1.63-2.29 1.33ZM518.21 792.19v.71l.91.39v.35l-.59.31-1.18.2-1.97-.75-.9-2.09.55-.43.16-.12 1.57.08.9.47.55.87ZM549.14 797.33v.71l.91.39v.35l-.59.31-1.18.2-1.97-.75-.9-2.09.55-.43.16-.12 1.57.08.9.47.55.87ZM517.64 802.68v.35l-.16.24-.83.08v.83h-.98l-.71.35-.16-.35.55-.43-.55-.43v-.08l.28-.55.63-.79h.51l.47-.83.83-.55.63-.51.95.39.83-.51.55.24.31 1.3-.67-.2-.59.32-.63.16-.31.51-.95.47ZM550.91 782.25l.61 1.55-2.45 1.43-1.34-1.43 1.75-.57.46-1.33.97.35ZM539.94 776.15v.71l.91.39v.35l-.59.31-1.18.2-1.97-.75-.9-2.09.55-.43.16-.12 1.57.08.9.47.55.87ZM539.37 786.64v.35l-.16.24-.83.08v.83h-.98l-.71.35-.16-.35.55-.43-.55-.43v-.08l.28-.55.63-.79h.51l.47-.83.83-.55.63-.51.95.39.83-.51.55.24.31 1.3-.67-.2-.59.32-.63.16-.31.51-.95.47ZM565.15 775.73v.25l-.11.17-.59.06v.59h-.71l-.51.25-.11-.25.4-.31-.4-.31v-.06l.2-.4.45-.57h.37l.34-.59.59-.4.45-.37.68.28.59-.37.4.17.23.93-.48-.14-.42.23-.45.11-.23.37-.68.34ZM510.46 802.87l.87.67 2.01 1.02-.91.67.24.71-1.54.55v.28l-1.42.12-.28.55-1.06.24 1.06-1.02 1.46-.71-.83-1.02-2.42-.48.81-.58-.71-.32.75-.91.35-.2.59-.28h.08l.08.28.12.35.75.08ZM492.61 800.4v.35l.16.24.83.08v.83h.98l.71.35.16-.35-.55-.43.55-.43v-.08l-.28-.55-.63-.79h-.51l-.47-.83-.83-.55-.63-.51-.94.39-.83-.51-.55.24-.32 1.3.67-.2.59.32.63.16.32.51.94.47ZM483.06 816.59v.35l.16.24.83.08v.83h.98l.71.35.16-.35-.55-.43.55-.43v-.08l-.28-.55-.63-.79h-.51l-.47-.83-.83-.55-.63-.51-.94.39-.83-.51-.55.24-.32 1.3.67-.2.59.32.63.16.32.51.94.47ZM557.53 500.54l1.35-1.19 2.06-.52v3.28l-.49.82-1.96-.82-.96-1.58ZM596.33 506.51l.91 2.32-3.67 2.14-2-2.14 2.62-.85.69-1.99 1.45.52ZM552.14 543.94l-1.38-4.43 1.42-2.84h4.26l1.42 2.84-2.28 2.43-3.43 2ZM579.92 497.38v1.06l1.36.59v.53l-.88.47-1.77.29-2.95-1.12-1.36-3.12.83-.65.24-.18 2.36.12 1.35.71.83 1.3ZM579.06 513.08v.53l-.24.35-1.24.12v1.24h-1.47l-1.06.53-.24-.53.83-.65-.83-.65v-.12l.41-.83.94-1.18h.77l.71-1.24 1.24-.83.94-.77 1.41.59 1.24-.77.83.35.47 1.95-1-.3-.88.47-.94.24-.47.77-1.41.71ZM568.32 513.36l1.3 1 3 1.53-1.35 1 .35 1.06-2.3.83v.41l-2.12.18-.41.83-1.59.35 1.59-1.53 2.18-1.06-1.24-1.53-3.62-.72 1.21-.87-1.06-.47 1.12-1.36.53-.29.88-.41h.12l.12.41.18.53 1.12.12ZM541.6 509.67v.53l.24.35 1.24.12v1.24h1.47l1.06.53.24-.53-.83-.65.83-.65v-.12l-.41-.83-.94-1.18h-.77l-.71-1.24-1.24-.83-.94-.77-1.41.59-1.24-.77-.83.35-.47 1.95 1-.29.88.47.94.24.47.77 1.41.71Z"></path></g></svg>
